<?xml version="1.0" encoding="UTF-8"?><svg id="Ebene_1" xmlns="http://www.w3.org/2000/svg" viewBox="0 0 45.68 24"><path id="Polygon_26" d="m1.59,14.65C.13,13.87-.43,12.05.35,10.59c.28-.53.71-.96,1.24-1.24L18.46.35c1.46-.78,3.28-.23,4.06,1.23.23.43.35.92.35,1.41v18c0,1.66-1.34,3-3,3-.49,0-.98-.12-1.41-.35L1.59,14.65Z" stroke-width="0"/><path id="Polygon_27" d="m24.39,14.65c-1.46-.78-2.01-2.6-1.24-4.06.28-.53.71-.96,1.24-1.24L41.26.35c1.46-.78,3.28-.23,4.06,1.23.23.43.35.92.35,1.41v18c0,1.66-1.34,3-3,3-.49,0-.98-.12-1.41-.35l-16.87-9Z" stroke-width="0"/></svg>