<?xml version="1.0" encoding="utf-8"?>
<!-- Generator: Adobe Illustrator 27.1.1, SVG Export Plug-In . SVG Version: 6.00 Build 0)  -->
<svg version="1.1" id="Ebene_1" xmlns="http://www.w3.org/2000/svg" xmlns:xlink="http://www.w3.org/1999/xlink" x="0px" y="0px"
	 viewBox="0 0 30.9 22.2" style="enable-background:new 0 0 30.9 22.2;" xml:space="preserve">
<style type="text/css">
	.st0{fill:#636E7B;}
	.st1{fill:#636E7B;stroke:#FFFFFF;stroke-width:2;stroke-miterlimit:10;}
</style>
<path class="st0" d="M7.5,2.5h16c4.1,0,7.5,3.3,7.5,7.5v4.8c0,4.1-3.3,7.5-7.5,7.5h-16c-4.1,0-7.5-3.3-7.5-7.5V9.9
	C0,5.8,3.3,2.5,7.5,2.5z"/>
<circle class="st1" cx="15.5" cy="12.3" r="5.5"/>
<path class="st0" d="M12.8,0h5.2c1.4,0,2.5,1.1,2.5,2.5v0c0,1.4-1.1,2.5-2.5,2.5h-5.2c-1.4,0-2.5-1.1-2.5-2.5v0
	C10.4,1.1,11.5,0,12.8,0z"/>
</svg>
