<?xml version="1.0" encoding="UTF-8"?><svg id="Ebene_1" xmlns="http://www.w3.org/2000/svg" viewBox="0 0 41.83 37.29"><path d="m8.94,20.29c.1,3.84,2.34,6.46,2.87,7.05,3.22,3.58,7.96,4.01,9.92,4.18,5.39.49,8.83-1.46,10,.19.96,1.35-.71,3.56-.07,4,.85.59,5.06-2.5,7.13-6.87,1.96-4.13,2.4-10.23-.72-15.02-5.13-7.86-17.5-8.48-23.94-3.44-.84.65-5.33,4.33-5.18,9.91Z" fill="#ffbffe" stroke="#000" stroke-miterlimit="10" stroke-width="3"/><path d="m32.92,14.93c-.17,3.84-2.46,6.42-3,7-3.28,3.52-8.03,3.86-10,4-5.4.39-8.8-1.62-10,0-.98,1.33.65,3.57,0,4-.86.57-5.01-2.59-7-7-1.88-4.16-2.21-10.27,1-15C9.2.16,21.57-.22,27.92,4.93c.82.67,5.24,4.43,5,10Z" fill="#b4e2ff" stroke="#000" stroke-miterlimit="10" stroke-width="3"/></svg>