<?xml version="1.0" encoding="UTF-8"?>
<svg id="Ebene_1" data-name="Ebene 1" xmlns="http://www.w3.org/2000/svg" viewBox="0 0 26.03 22.84">
  <path d="M5.28,16.75c-.85-.24-1.58-.87-1.91-1.76L.92,8.24c-.54-1.47.22-3.1,1.7-3.64L12.73.92c1.47-.54,3.1.22,3.64,1.7.46,1.28.93,2.55,1.39,3.83" fill="none" stroke="currentColor" stroke-linecap="round" stroke-miterlimit="10" stroke-width="1.5"/>
  <path d="M17.76,6.44h4.69c1.57,0,2.84,1.27,2.84,2.84v9.97c0,1.57-1.27,2.84-2.84,2.84h-14.32c-1.57,0-2.84-1.27-2.84-2.84v-2.5" fill="none" stroke="currentColor" stroke-linecap="round" stroke-miterlimit="10" stroke-width="1.5"/>
  <path d="M5.28,16.75v-7.47c0-1.57,1.27-2.84,2.84-2.84h9.63" fill="none" stroke="currentColor" stroke-linecap="round" stroke-miterlimit="10" stroke-width="1.5"/>
  <path d="M15.14,16.06c-.51.58-1.07,1.2-1.6,1.8l-.84-.93-.08-3.1h0c0-.06.02-.11.04-.15.03-.04.05-.05.07-.08.01,0,.01-.01.02-.01h.03c.05-.03.13-.01.18.05l2.18,2.42Z" fill="currentColor" stroke="currentColor" stroke-linecap="round" stroke-miterlimit="10" stroke-width=".46"/>
  <path d="M24.39,21.25h-9.05l2.08-2.61-.52-.77v-1.22l.14-1.21-4.96,5.81h-1.46c.65-.82,1.76-2.08,2.91-3.38.52-.59,1.07-1.2,1.57-1.77.71-.79,1.34-1.53,1.8-2.09.08-.1.22-.09.29.03l2.52,3.77,1.15-1.19c.06-.06.15-.05.2.01l.32.45,2.99,4.16Z" fill="currentColor" stroke="currentColor" stroke-linecap="round" stroke-miterlimit="10" stroke-width=".46"/>
  <path d="M12.61,13.82h0c-.19.21-.5.59-.9,1.03l-5.72,6.39h-.13l2.82-3.15,3.58-4c.18-.2.31-.34.39-.42.03-.04.05-.05.07-.08.01,0,.01-.01.02-.01" fill="none" stroke="currentColor" stroke-linecap="round" stroke-miterlimit="10" stroke-width=".49"/>
  <path d="M20.47,11.38c0-1.18.87-2.15,2-2.32-.77-.37-1.74-.38-2.73.25-.22.14-.41.34-.54.56-1.19,2.02.23,4.1,2.14,4.1.4,0,.78-.09,1.12-.26-1.13-.17-2-1.14-2-2.32Z" fill="currentColor" stroke="currentColor" stroke-miterlimit="10" stroke-width=".1"/>
</svg>