<?xml version="1.0" encoding="UTF-8"?>
<svg id="Ebene_1" data-name="Ebene 1" xmlns="http://www.w3.org/2000/svg" viewBox="0 0 31.62 33">
  <path d="M26.94,9.38L16.98,1.42c-.71-.57-1.63-.57-2.34,0L4.69,9.38c-1.25,1-6.25,4.62-2.01,4.72v12.38c0,3.05,1.87,5.52,4.18,5.52h3.77c1.15,0,2.09-1.11,2.09-2.47v-6.5c0-1.37,.94-2.47,2.09-2.47h2.39c1.15,0,2.09,1.11,2.09,2.47v6.49c0,1.37,.94,2.47,2.09,2.47h3.39c2.31,0,4.18-2.47,4.18-5.52V14.1c4.24-.1-.76-3.72-2.01-4.72Z" fill="current" stroke="current" stroke-miterlimit="10" stroke-width="current"/>
</svg>