<?xml version="1.0" encoding="UTF-8"?>
<svg id="Ebene_1" data-name="Ebene 1" xmlns="http://www.w3.org/2000/svg" viewBox="0 0 31.76 26.07">
  <g>
    <ellipse cx="12.67" cy="19.51" rx="4.35" ry="2.66" transform="translate(-7.6 8.1) rotate(-27.64)" fill="#000" stroke="#000" stroke-miterlimit="10" stroke-width="2"/>
    <line x1="16.7" y1="18.03" x2="14.23" y2="1" fill="none" stroke="#000" stroke-linecap="round" stroke-miterlimit="10" stroke-width="2"/>
    <path d="m14.83,4.36c-.05-.31-.59-3.66-.15-3.75.1-.02.31.09.47.52.24.64.99,1.01,2.49,2.08.22.15.38.27.51.35.39.26.7.42,1.06.64.71.43,1.78,1.08,2.66,2.06.35.4,1.24,1.41,1.65,2.97.23.87.22,1.58.21,2.41,0,.08-.01.84-.22,1.82-.21.95-.4,1.15-.59,1.25-.3.16-.75.15-.99-.09-.34-.34-.01-.94.1-1.87.04-.36.25-2.03-.64-3.28-.71-1-1.88-1.41-2.3-1.57-.47-.18-1.05-.29-1.05-.3-.41-.09-.76-.14-1.03-.17-.74-.1-.79-.05-.95-.1-.39-.11-.83-.58-1.23-2.97Z" fill="#000" stroke="#000" stroke-miterlimit="10" stroke-width=".25"/>
  </g>
  <ellipse cx="24.32" cy="20.08" rx="2.49" ry="1.42" transform="translate(-2.94 4.22) rotate(-9.36)" fill="#000" stroke="#000" stroke-miterlimit="10" stroke-width="1.1"/>
  <line x1="26.77" y1="19.98" x2="28.36" y2="10.97" fill="none" stroke="#000" stroke-linecap="round" stroke-miterlimit="10" stroke-width="1.06"/>
  <path d="m28.11,12.77c.03-.16.31-1.95.55-1.92.06,0,.14.1.15.34.01.36.33.68.91,1.47.08.11.15.2.2.26.16.19.28.33.43.5.29.34.72.84,1,1.48.11.26.39.92.34,1.78-.03.48-.15.84-.29,1.25-.01.04-.15.42-.42.88-.26.44-.39.52-.51.53-.18.03-.41-.05-.49-.21-.11-.23.15-.48.36-.93.08-.17.46-.98.22-1.76-.19-.62-.72-1.03-.9-1.18-.21-.17-.48-.32-.48-.32-.19-.12-.36-.2-.49-.26-.36-.17-.39-.16-.46-.21-.18-.12-.32-.43-.12-1.71Z" fill="#000" stroke="#000" stroke-miterlimit="10" stroke-width=".13"/>
  <path d="m13.84,23.87c3.16,2.36,7.36,1.29,10.32-.9,0,0,.07.05.07.05-2.12,3.26-8.31,4.45-10.39.85h0Z" fill="#000" stroke-width="0"/>
  <path d="m8.6,9.75c.44.62.12,1.61-.71,2.2s-1.88.57-2.32-.05-.12-1.61.72-2.2c.41-.29.87-.43,1.28-.43l-2.38-4.91-3.67,3.94s2.65,6.21,2.67,6.24c.44.62.12,1.61-.71,2.2s-1.87.56-2.31-.06-.13-1.6.71-2.2c.41-.29.87-.43,1.28-.43L.29,7.59c-.07-.16-.04-.36.08-.49L4.74,2.52c.14-.15.38-.11.47.07.72,1.52,3.36,7.11,3.39,7.16Z" fill="#000" stroke="#000" stroke-miterlimit="10" stroke-width=".5"/>
</svg>