<?xml version="1.0" encoding="UTF-8"?>
<svg id="Ebene_1" data-name="Ebene 1" xmlns="http://www.w3.org/2000/svg" viewBox="0 0 38 38">
  <path d="m19.01,7c6.56,0,11.94,5.34,12,11.9.03,3.21-1.2,6.23-3.44,8.51-2.25,2.29-5.25,3.56-8.46,3.58h-.1c-6.56,0-11.94-5.34-12-11.9-.03-3.21,1.2-6.23,3.44-8.51,2.25-2.29,5.25-3.56,8.46-3.58h.1m0-3s-.08,0-.13,0c-8.28.07-14.94,6.84-14.88,15.12.07,8.24,6.77,14.88,15,14.88.04,0,.08,0,.13,0,8.28-.07,14.94-6.84,14.88-15.12-.07-8.24-6.77-14.88-15-14.88h0Z" fill="currentColor"/>
  <g>
    <path d="m19,6.5c-1.38,0-2.5-1.12-2.5-2.5,0-.3-.03-.63-.07-.96-.08-.77-.16-1.49.23-1.93.36-.4,1.15-.61,2.34-.61s1.92.2,2.29.61c.41.45.34,1.2.27,1.99-.03.31-.06.62-.06.9,0,1.38-1.12,2.5-2.5,2.5Z" fill="currentColor"/>
    <path d="m19,1c1.32,0,1.77.28,1.92.44.26.29.2.96.14,1.61-.03.31-.06.63-.06.95,0,1.1-.9,2-2,2s-2-.9-2-2c0-.34-.04-.69-.07-1.02-.07-.62-.14-1.27.1-1.54.12-.13.55-.44,1.97-.44m0-1c-4.12,0-3,2.34-3,4s1.34,3,3,3,3-1.34,3-3,1-4-3-4h0Z" fill="currentColor"/>
  </g>
  <g>
    <path d="m35.79,21.62c-.3,0-.61-.03-.91-.06-.31-.03-.62-.06-.9-.06-1.38-.01-2.49-1.14-2.48-2.52.01-1.37,1.13-2.48,2.5-2.48h0c.35,0,.67-.03.98-.06.29-.03.59-.06.88-.06.51,0,.85.11,1.08.34.38.38.56,1.16.55,2.31-.02,2.6-1.04,2.6-1.71,2.6Z" fill="currentColor"/>
    <path d="m34,16l.06,1c.33,0,.66-.03.98-.07.3-.03.58-.06.83-.06.48,0,.64.1.73.19.16.16.42.62.41,1.96-.02,2.1-.63,2.1-1.21,2.1-.26,0-.55-.03-.86-.06-.31-.03-.63-.06-.95-.07-1.1,0-1.99-.92-1.98-2.02,0-1.09.91-1.98,2-1.98v-1m1.87-.12c-.6,0-1.24.12-1.8.12-.01,0-.02,0-.03,0,0,0-.02,0-.03,0-1.64,0-2.98,1.33-3,2.97-.01,1.66,1.32,3.01,2.97,3.03.57,0,1.21.13,1.81.13,1.17,0,2.19-.46,2.21-3.09.02-2.7-.98-3.16-2.13-3.16h0Z" fill="currentColor"/>
  </g>
  <g>
    <path d="m2.16,21.64c-.56,0-.9-.11-1.14-.35-.37-.38-.55-1.17-.52-2.33.07-2.56,1.08-2.56,1.69-2.56.32,0,.65.04.97.08.31.04.61.07.9.08,1.38.04,2.47,1.19,2.43,2.57-.04,1.36-1.13,2.43-2.5,2.43h-.19c-.27,0-.56.02-.85.04-.27.02-.54.04-.81.04Z" fill="currentColor"/>
    <path d="m2.19,16.89h0c.28,0,.59.04.91.08.31.04.63.08.95.08,1.1.03,1.97.95,1.95,2.05-.03,1.09-.91,1.95-2,1.95h-.05s-.13,0-.13,0c-.3,0-.6.02-.89.05-.27.02-.53.04-.77.04-.52,0-.69-.11-.79-.2-.16-.16-.41-.63-.37-1.97.06-2.08.66-2.08,1.19-2.08m0-1c-1.14,0-2.12.47-2.19,3.05-.07,2.76.97,3.2,2.16,3.2.55,0,1.13-.09,1.65-.09.04,0,.07,0,.11,0,.03,0,.05,0,.08,0,1.62,0,2.95-1.29,3-2.92.04-1.66-1.26-3.03-2.92-3.08-.59-.02-1.26-.16-1.89-.16h0Z" fill="currentColor"/>
  </g>
  <g>
    <path d="m19.02,37.5c-1.19,0-1.98-.21-2.34-.61-.39-.44-.31-1.16-.23-1.93.04-.33.07-.66.07-.96,0-1.38,1.12-2.5,2.5-2.5s2.5,1.12,2.5,2.5c0,.29.03.59.06.9.07.79.14,1.54-.27,1.99-.37.4-1.13.61-2.29.61Z" fill="currentColor"/>
    <path d="m19.02,32c1.1,0,2,.9,2,2,0,.32.03.64.06.95.06.65.12,1.32-.14,1.61-.15.17-.6.44-1.92.44-1.42,0-1.85-.31-1.97-.44-.24-.27-.17-.92-.1-1.54.04-.33.07-.68.07-1.02,0-1.1.9-2,2-2m0-1c-1.66,0-3,1.34-3,3s-1.12,4,3,4,3-2.34,3-4-1.34-3-3-3h0Z" fill="currentColor"/>
  </g>
  <g>
    <path d="m29.62,10.93c-.69,0-1.33-.27-1.81-.77-.46-.48-.71-1.12-.69-1.78s.29-1.29.77-1.75c.22-.21.43-.46.65-.72.5-.6.98-1.17,1.58-1.17.54,0,1.22.43,2.03,1.27.79.83,1.18,1.53,1.14,2.07-.04.61-.63,1.08-1.25,1.57-.24.19-.48.39-.69.58-.47.45-1.08.69-1.73.69Z" fill="currentColor"/>
    <path d="m30.13,5.24h0c.18,0,.7.11,1.67,1.12.91.95,1.02,1.47,1,1.69-.03.39-.55.81-1.06,1.22-.24.19-.5.39-.73.61-.37.36-.86.55-1.38.55-.55,0-1.06-.22-1.45-.62-.76-.8-.73-2.07.06-2.83.25-.24.47-.5.68-.76.41-.49.83-.99,1.2-.99m0-1c-1.14,0-1.8,1.28-2.58,2.02-1.2,1.15-1.24,3.04-.09,4.24.59.62,1.38.93,2.17.93.75,0,1.49-.28,2.07-.83,1.2-1.15,3.58-2.04.82-4.93-1-1.05-1.77-1.43-2.39-1.43h0Z" fill="currentColor"/>
  </g>
  <g>
    <path d="m30.45,33.01c-.6,0-1.08-.57-1.58-1.17-.21-.26-.43-.51-.65-.72-1-.95-1.03-2.54-.08-3.53.48-.5,1.12-.77,1.81-.77.65,0,1.26.25,1.73.69.21.2.45.39.69.58.62.49,1.21.96,1.25,1.57.04.54-.35,1.24-1.14,2.07-.81.84-1.49,1.27-2.03,1.27h0Z" fill="currentColor"/>
    <path d="m29.95,27.32c.52,0,1.01.2,1.38.55.23.22.48.42.73.61.51.41,1.04.82,1.06,1.22.02.22-.1.74-1,1.69-.97,1.01-1.49,1.12-1.67,1.12-.37,0-.79-.5-1.2-.99-.21-.26-.44-.52-.68-.76-.8-.76-.82-2.03-.06-2.83.38-.4.89-.62,1.45-.62m0-1c-.79,0-1.58.31-2.17.93-1.15,1.2-1.1,3.1.09,4.24.78.74,1.43,2.02,2.58,2.02.62,0,1.38-.38,2.39-1.43,2.77-2.89.38-3.79-.82-4.93-.58-.56-1.33-.83-2.07-.83h0Z" fill="currentColor"/>
  </g>
  <g>
    <path d="m7.62,33.01c-.54,0-1.22-.43-2.03-1.27-.79-.83-1.18-1.53-1.14-2.07.04-.61.63-1.08,1.25-1.57.24-.19.48-.39.69-.58.47-.45,1.08-.69,1.73-.69.69,0,1.33.27,1.81.77.95,1,.92,2.58-.08,3.53-.22.21-.43.46-.65.72-.5.6-.98,1.17-1.58,1.17Z" fill="currentColor"/>
    <path d="m8.12,27.32c.55,0,1.06.22,1.45.62.76.8.73,2.07-.06,2.83-.25.24-.47.5-.68.76-.41.49-.83.99-1.2.99-.18,0-.7-.11-1.67-1.12-.91-.95-1.02-1.47-1-1.69.03-.39.55-.81,1.06-1.22.24-.19.5-.39.73-.61.37-.36.86-.55,1.38-.55m0-1c-.75,0-1.49.28-2.07.83-1.2,1.15-3.58,2.04-.82,4.93,1,1.05,1.77,1.43,2.39,1.43,1.14,0,1.8-1.28,2.58-2.02,1.2-1.15,1.24-3.04.09-4.24-.59-.62-1.38-.93-2.17-.93h0Z" fill="currentColor"/>
  </g>
  <g>
    <path d="m8.07,11.25c-.65,0-1.26-.25-1.73-.69-.21-.2-.45-.39-.69-.58-.62-.49-1.21-.96-1.25-1.57-.04-.54.35-1.24,1.14-2.07.81-.84,1.49-1.27,2.03-1.27.6,0,1.08.57,1.58,1.17.21.26.43.51.65.72,1,.95,1.03,2.54.08,3.53-.48.5-1.12.77-1.81.77h0Z" fill="currentColor"/>
    <path d="m7.57,5.56c.37,0,.79.5,1.2.99.21.26.44.52.68.76.8.76.82,2.03.06,2.83-.38.4-.89.62-1.45.62-.52,0-1.01-.2-1.38-.55-.23-.22-.48-.42-.73-.61-.51-.41-1.04-.82-1.06-1.22-.02-.22.1-.74,1-1.69.97-1.01,1.49-1.12,1.67-1.12m0-1c-.62,0-1.38.38-2.39,1.43-2.77,2.89-.38,3.79.82,4.93.58.56,1.33.83,2.07.83.79,0,1.58-.31,2.17-.93,1.15-1.2,1.1-3.1-.09-4.24-.78-.74-1.43-2.02-2.58-2.02h0Z" fill="currentColor"/>
  </g>
</svg>