<?xml version="1.0" encoding="UTF-8"?>
<svg id="Ebene_1" data-name="Ebene 1" xmlns="http://www.w3.org/2000/svg" viewBox="-3 0 27.77 29.19">
  <path d="m2.06,5.79c1.03-.91,2.35-1.34,3.63-1.25.83.06,1.66.32,2.38.79l.72,7.84-.09.08c-.63.56-1.37.93-2.11,1.13.65,1.52,1.55,2.96,2.71,4.27s2.49,2.37,3.92,3.19c.27-.71.69-1.37,1.27-1.91l8.1,2c.21.64.31,1.3.27,1.95-.07,1.27-.63,2.52-1.66,3.44-.51.46-1.1.79-1.71,1-1.69-.12-3.36-.48-4.99-1.04h-.01c-3.17-1.11-6.11-3-8.5-5.69S2.07,15.75,1.36,12.48c-.38-1.7-.54-3.44-.46-5.16.28-.56.66-1.09,1.16-1.53Z" fill="#000" stroke="#000" stroke-linecap="round" stroke-linejoin="round" stroke-width="1.76"/>
</svg>