<?xml version="1.0" encoding="UTF-8"?>
<svg id="Ebene_1" data-name="Ebene 1" xmlns="http://www.w3.org/2000/svg" viewBox="0 0 36.25 37">
  <ellipse cx="18.12" cy="11.38" rx="6.65" ry="6.8" fill="#ffffff" stroke="#ffffff" stroke-miterlimit="10" stroke-width="3.5"/>
  <g>
    <path d="M34.75,18.5C34.75,9.11,27.31,1.5,18.12,1.5S1.5,9.11,1.5,18.5c0,4.89,2.03,9.29,5.26,12.39,0,0,0,0,.01,0,.85-5.09,5.6-8.98,11.35-8.98s10.51,3.9,11.35,8.98c0,0,0,0,.01,0,3.23-3.1,5.26-7.5,5.26-12.39Z" fill="none" stroke="#ffffff" stroke-miterlimit="10" stroke-width="3"/>
    <path d="M6.78,30.93c2.97,2.83,6.96,4.57,11.34,4.57s8.38-1.76,11.35-4.6c0,0,0,0,0,0-.84-5.09-5.6-8.99-11.35-8.99s-10.51,3.9-11.35,8.99v.04" fill="#ffffff" stroke="#ffffff" stroke-miterlimit="10" stroke-width="3"/>
  </g>
</svg>