<?xml version="1.0" encoding="UTF-8"?><svg id="Ebene_1" xmlns="http://www.w3.org/2000/svg" viewBox="0 0 45 45"><path d="m22.51,11c6.29,0,11.44,5.12,11.49,11.4.03,3.07-1.15,5.97-3.3,8.16-2.15,2.19-5.03,3.41-8.1,3.44h-.1c-6.29,0-11.44-5.12-11.5-11.4-.03-3.07,1.15-5.97,3.3-8.16,2.15-2.19,5.03-3.41,8.1-3.44h.1m0-6s-.1,0-.15,0c-9.66.08-17.43,7.98-17.35,17.64.08,9.62,7.9,17.36,17.5,17.36.05,0,.1,0,.15,0,9.66-.08,17.43-7.98,17.35-17.64-.08-9.62-7.9-17.36-17.5-17.36h0Z" fill="#55636e" stroke-width="0"/><path d="m22.5,7.79c-1.68,0-3.05-1.37-3.05-3.05,0-.36-.04-.74-.08-1.13-.1-.93-.2-1.81.29-2.35.45-.5,1.4-.75,2.84-.75s2.32.25,2.77.75c.52.57.43,1.47.34,2.43-.03.36-.07.72-.07,1.06,0,1.68-1.37,3.05-3.05,3.05Z" fill="#55636e" stroke-width="0"/><path d="m22.5,1c1.55,0,2.16.32,2.4.58.37.4.29,1.2.22,2.05-.03.36-.07.74-.07,1.11,0,1.41-1.15,2.55-2.55,2.55s-2.55-1.14-2.55-2.55c0-.4-.04-.8-.09-1.19-.09-.81-.17-1.58.17-1.97.34-.38,1.22-.59,2.47-.59m0-1c-4.88,0-3.55,2.77-3.55,4.74s1.59,3.55,3.55,3.55,3.55-1.59,3.55-3.55,1.18-4.74-3.55-4.74h0Z" fill="#55636e" stroke-width="0"/><path d="m42.38,25.7c-.36,0-.72-.04-1.08-.07-.36-.04-.72-.07-1.06-.08-.82,0-1.58-.33-2.15-.91-.57-.58-.88-1.35-.88-2.17.01-1.67,1.38-3.02,3.05-3.02h0c.42,0,.78-.04,1.15-.07.35-.04.71-.07,1.05-.07.64,0,1.05.13,1.35.43.46.47.69,1.41.68,2.8-.03,2.92-1.11,3.16-2.12,3.16Z" fill="#55636e" stroke-width="0"/><path d="m40.26,18.94l.07,1c.38,0,.76-.04,1.14-.08.36-.04.69-.07,1-.07.63,0,.85.14.99.28.36.36.54,1.23.53,2.45-.02,2.67-.91,2.67-1.62,2.67-.32,0-.67-.04-1.03-.07-.36-.04-.74-.07-1.1-.08-1.41-.01-2.54-1.17-2.53-2.58.01-1.39,1.16-2.53,2.55-2.53v-1m2.21-.15c-.71,0-1.47.15-2.14.15-.01,0-.03,0-.04,0-.01,0-.02,0-.03,0-1.95,0-3.53,1.57-3.55,3.52-.02,1.96,1.56,3.57,3.52,3.58.67,0,1.43.15,2.15.15,1.38,0,2.59-.54,2.62-3.66.03-3.2-1.16-3.74-2.53-3.74h0Z" fill="#55636e" stroke-width="0"/><path d="m2.56,25.71c-.68,0-1.12-.14-1.42-.45-.46-.47-.67-1.42-.64-2.82.08-2.89,1.12-3.13,2.09-3.13.37,0,.77.05,1.16.09.36.04.72.09,1.06.09.81.02,1.57.36,2.13.95.56.59.86,1.37.84,2.18-.04,1.67-1.38,2.97-3.05,2.97h-.22c-.32,0-.65.02-.99.05-.32.03-.65.05-.96.05Z" fill="#55636e" stroke-width="0"/><path d="m2.6,19.81h0c.34,0,.71.04,1.1.09.36.04.74.09,1.1.1,1.41.04,2.52,1.21,2.48,2.62-.04,1.39-1.16,2.48-2.55,2.48h-.07s-.15,0-.15,0c-.35,0-.7.03-1.03.06-.33.03-.63.05-.92.05-.68,0-.92-.15-1.06-.3-.35-.36-.53-1.24-.5-2.46.07-2.64.92-2.64,1.59-2.64m0-1c-1.35,0-2.51.56-2.59,3.61-.09,3.27,1.14,3.79,2.56,3.79.65,0,1.34-.11,1.96-.11.04,0,.08,0,.13,0,.03,0,.06,0,.1,0,1.92,0,3.5-1.53,3.55-3.46.05-1.96-1.49-3.59-3.46-3.65-.7-.02-1.49-.19-2.23-.19h0Z" fill="#55636e" stroke-width="0"/><path d="m22.52,44.5c-1.44,0-2.4-.25-2.84-.75-.49-.55-.4-1.43-.29-2.35.04-.39.08-.77.08-1.13,0-1.68,1.37-3.05,3.05-3.05s3.05,1.37,3.05,3.05c0,.34.03.69.07,1.06.09.96.17,1.86-.34,2.43-.45.5-1.38.75-2.77.75Z" fill="#55636e" stroke-width="0"/><path d="m22.52,37.71c1.41,0,2.55,1.14,2.55,2.55,0,.37.03.74.07,1.11.08.85.15,1.64-.22,2.05-.24.27-.86.58-2.4.58-1.25,0-2.13-.21-2.47-.59-.34-.38-.26-1.15-.17-1.97.04-.39.09-.79.09-1.19,0-1.41,1.15-2.55,2.55-2.55m0-1c-1.96,0-3.55,1.59-3.55,3.55s-1.33,4.74,3.55,4.74,3.55-2.77,3.55-4.74-1.59-3.55-3.55-3.55h0Z" fill="#55636e" stroke-width="0"/><path d="m35.08,13.03c-.84,0-1.62-.33-2.21-.94-.56-.59-.86-1.36-.85-2.18.02-.81.35-1.57.94-2.14.26-.25.51-.54.76-.84.61-.73,1.19-1.42,1.95-1.42.66,0,1.49.52,2.47,1.54.96,1,1.42,1.85,1.38,2.52-.05.77-.76,1.33-1.52,1.93-.29.23-.57.45-.81.68-.57.55-1.32.85-2.11.85Z" fill="#55636e" stroke-width="0"/><path d="m35.67,6.02h0c.51,0,1.25.49,2.1,1.38,1.07,1.12,1.27,1.78,1.24,2.14-.04.55-.67,1.04-1.33,1.57-.29.23-.58.46-.85.71-.48.46-1.1.71-1.76.71-.7,0-1.36-.28-1.84-.79-.97-1.02-.94-2.64.08-3.61.29-.27.55-.58.8-.88.63-.75,1.08-1.24,1.56-1.24m0-1c-1.35,0-2.13,1.52-3.05,2.4-1.42,1.36-1.47,3.61-.11,5.02.7.73,1.63,1.1,2.57,1.1.88,0,1.77-.33,2.46-.99,1.42-1.36,4.24-2.42.97-5.84-1.19-1.24-2.09-1.69-2.83-1.69h0Z" fill="#55636e" stroke-width="0"/><path d="m36.06,39.18c-.76,0-1.33-.69-1.95-1.42-.25-.3-.5-.59-.76-.84-.59-.56-.92-1.32-.94-2.14-.02-.82.28-1.59.85-2.18.58-.61,1.36-.94,2.21-.94.79,0,1.54.3,2.11.85.24.23.52.46.81.68.75.6,1.47,1.16,1.52,1.93.05.67-.42,1.52-1.38,2.52-.97,1.02-1.8,1.54-2.47,1.54h0Z" fill="#55636e" stroke-width="0"/><path d="m35.46,32.17c.66,0,1.29.25,1.76.71.27.25.56.49.85.71.66.53,1.29,1.03,1.33,1.57.02.36-.17,1.02-1.24,2.14-.85.89-1.6,1.38-2.1,1.38s-.94-.49-1.56-1.24c-.25-.3-.51-.61-.8-.88-.49-.47-.77-1.11-.79-1.79s.24-1.33.71-1.82c.49-.51,1.14-.79,1.84-.79m0-1c-.94,0-1.87.37-2.57,1.1-1.36,1.42-1.31,3.67.11,5.02.92.88,1.7,2.4,3.05,2.4.73,0,1.64-.45,2.83-1.69,3.27-3.42.45-4.48-.97-5.84-.69-.66-1.57-.99-2.46-.99h0Z" fill="#55636e" stroke-width="0"/><path d="m9.02,39.18c-.66,0-1.49-.52-2.47-1.54-.96-1-1.42-1.85-1.38-2.52.05-.76.76-1.33,1.52-1.93.29-.23.57-.45.81-.68.57-.55,1.32-.85,2.11-.85.84,0,1.62.33,2.21.94.56.59.86,1.36.85,2.18-.02.82-.35,1.58-.94,2.14-.26.25-.51.54-.76.84-.61.73-1.19,1.42-1.95,1.42Z" fill="#55636e" stroke-width="0"/><path d="m9.62,32.17c.7,0,1.36.28,1.84.79.47.49.72,1.14.71,1.82-.02.68-.29,1.32-.79,1.79-.29.27-.55.58-.8.88-.63.75-1.08,1.24-1.56,1.24s-1.25-.49-2.1-1.38c-1.07-1.12-1.27-1.78-1.24-2.14.04-.55.67-1.04,1.33-1.57.29-.23.58-.46.85-.71.48-.46,1.1-.71,1.76-.71m0-1c-.88,0-1.77.33-2.46.99-1.42,1.36-4.24,2.42-.97,5.84,1.19,1.24,2.09,1.69,2.83,1.69,1.35,0,2.13-1.52,3.05-2.4,1.42-1.36,1.47-3.61.11-5.02-.7-.73-1.63-1.1-2.57-1.1h0Z" fill="#55636e" stroke-width="0"/><path d="m9.56,13.41c-.79,0-1.54-.3-2.11-.85-.24-.23-.52-.46-.81-.68-.75-.6-1.47-1.16-1.52-1.93-.05-.67.42-1.52,1.38-2.52.97-1.02,1.8-1.54,2.47-1.54.76,0,1.33.69,1.95,1.42.25.3.5.59.76.84.59.56.92,1.32.94,2.14.02.81-.28,1.59-.85,2.18-.58.61-1.36.94-2.21.94h0Z" fill="#55636e" stroke-width="0"/><path d="m8.97,6.39c.49,0,.94.49,1.56,1.24.25.3.51.61.8.88,1.02.97,1.05,2.59.08,3.61-.49.51-1.14.79-1.84.79-.66,0-1.29-.25-1.76-.71-.27-.25-.56-.49-.85-.71-.66-.53-1.29-1.03-1.33-1.57-.02-.36.17-1.02,1.24-2.14.85-.89,1.6-1.38,2.1-1.38m0-1c-.73,0-1.64.45-2.83,1.69-3.27,3.42-.45,4.48.97,5.84.69.66,1.57.99,2.46.99.94,0,1.87-.37,2.57-1.1,1.36-1.42,1.31-3.67-.11-5.02-.92-.88-1.7-2.4-3.05-2.4h0Z" fill="#55636e" stroke-width="0"/></svg>