<?xml version="1.0" encoding="UTF-8"?><svg id="Ebene_1" xmlns="http://www.w3.org/2000/svg" viewBox="0 0 36.06 34.46"><path d="m28.13,32.96s-.06,0-.09-.03l-8.52-4.48c-.46-.24-.97-.37-1.49-.37s-1.03.13-1.49.37l-8.52,4.48s-.07,0-.09,0c-.08,0-.12-.03-.15-.06-.04-.04-.05-.09-.04-.15l1.63-9.48c.18-1.04-.17-2.09-.92-2.83L1.56,13.7s-.09-.08-.05-.2.12-.13.16-.13l9.52-1.38c1.04-.15,1.94-.81,2.41-1.75L17.86,1.61s.05-.11.18-.11.16.08.18.11l4.26,8.63c.46.94,1.36,1.6,2.4,1.75l9.52,1.38s.12.02.16.13c.04.12-.02.17-.05.2l-6.89,6.72c-.75.74-1.1,1.79-.92,2.83l1.63,9.48c.01.06,0,.11-.04.15-.04.05-.1.08-.16.08Z" fill="#f2c737" stroke-width="0"/><path d="m18.03,4.64l3.09,6.26c.68,1.39,2.01,2.35,3.54,2.57l6.91,1-5,4.87c-1.11,1.08-1.61,2.63-1.35,4.16l1.18,6.88-6.18-3.25c-.67-.35-1.43-.54-2.18-.54s-1.51.19-2.18.54l-6.18,3.25,1.18-6.88c.26-1.52-.24-3.08-1.35-4.16l-5-4.87,6.91-1c1.53-.22,2.85-1.18,3.54-2.57l3.09-6.26m0-4.64c-.6,0-1.21.32-1.52.95l-4.26,8.63c-.25.5-.72.85-1.28.93l-9.52,1.38c-1.39.2-1.95,1.91-.94,2.89l6.89,6.72c.4.39.58.95.49,1.5l-1.63,9.48c-.19,1.1.68,1.99,1.67,1.99.26,0,.53-.06.79-.2l8.52-4.48c.25-.13.52-.19.79-.19s.54.06.79.19l8.52,4.48c.26.14.53.2.79.2.99,0,1.86-.89,1.67-1.99l-1.63-9.48c-.09-.55.09-1.11.49-1.5l6.89-6.72c1.01-.98.45-2.69-.94-2.89l-9.52-1.38c-.55-.08-1.03-.43-1.28-.93L19.55.95c-.31-.63-.92-.95-1.52-.95h0Z" stroke-width="0"/></svg>