<?xml version="1.0" encoding="UTF-8"?><svg id="Ebene_1" xmlns="http://www.w3.org/2000/svg" viewBox="0 0 34.97 30.36"><path d="m30.07,22.51c-3.08,4.52-8.49,6.96-13.8,6.22-6.24-.87-11.26-5.99-11.96-12.44" fill="none" stroke="#000" stroke-linecap="round" stroke-miterlimit="10" stroke-width="4"/><path d="m4.23,12.1l-3.2,4.02c-.06.07,0,.17.08.17h6.41c.09,0,.14-.1.08-.17l-3.2-4.02c-.04-.05-.12-.05-.17,0Z" stroke="#000" stroke-linecap="round" stroke-miterlimit="10" stroke-width="3"/><path d="m6.2,7.18C9.17,3.13,14.37.95,19.47,1.62c6,.78,10.83,5.35,11.49,11.12" fill="none" stroke="#000" stroke-linecap="round" stroke-miterlimit="10" stroke-width="4"/><path d="m30.75,16.92l3.2-4.02c.06-.07,0-.17-.08-.17h-6.41c-.09,0-.14.1-.08.17l3.2,4.02c.04.05.12.05.17,0Z" stroke="#000" stroke-linecap="round" stroke-miterlimit="10" stroke-width="3"/></svg>