<?xml version="1.0" encoding="UTF-8"?><svg id="Ebene_1" xmlns="http://www.w3.org/2000/svg" viewBox="0 0 31.19 35.82"><path d="m25.64,23.03c-.26,0-.47-.17-.47-.38v-9.1c0-2.84-1.85-5.33-4.6-6.71-.24-3-2.38-5.34-4.97-5.34s-4.73,2.34-4.97,5.34c-2.76,1.38-4.6,3.86-4.6,6.71v9.1c0,.21-.21.38-.47.38h0c-2.08,0-3.94,1.28-4.05,2.98-.12,1.82,1.64,3.32,3.83,3.32h20.52c2.19,0,3.95-1.5,3.83-3.32-.11-1.7-1.97-2.98-4.05-2.98Z" fill="none" stroke="#000" stroke-miterlimit="10" stroke-width="3"/><path d="m15.6,34.32c2.76,0,5-2.24,5-5h-10c0,2.76,2.24,5,5,5Z" fill="none" stroke="#000" stroke-miterlimit="10" stroke-width="3"/></svg>