<?xml version="1.0" encoding="UTF-8"?>
<svg id="Ebene_1" data-name="Ebene 1" xmlns="http://www.w3.org/2000/svg" viewBox="0 0 18.68 23.02">
  <path d="m13.33,22.02h-7.98c-1.05,0-1.92-.63-2-1.44l-1.29-13.19c-.04-.42.33-.78.79-.78h12.97c.47,0,.83.36.79.78l-1.29,13.19c-.08.81-.95,1.44-2,1.44Z" fill="none" stroke="#000" stroke-miterlimit="10" stroke-width="2"/>
  <path d="m16.05,3.28H2.63c-.59,0-1.12.49-1.3,1.22l-.3,1.21c-.11.44.14.9.5.9h15.62c.36,0,.62-.45.5-.9l-.3-1.21c-.18-.73-.71-1.22-1.3-1.22Z" fill="none" stroke="#000" stroke-miterlimit="10" stroke-width="2"/>
  <rect x="6.94" y=".75" width="4.79" height="2.53" rx=".97" ry=".97" fill="none" stroke="#000" stroke-miterlimit="10" stroke-width="1.5"/>
  <line x1="5.42" y1="10.34" x2="6.22" y2="18.39" fill="none" stroke="#000" stroke-linecap="round" stroke-miterlimit="10" stroke-width="1"/>
  <line x1="9.37" y1="10.25" x2="9.37" y2="18.3" fill="none" stroke="#000" stroke-linecap="round" stroke-miterlimit="10" stroke-width="1"/>
  <line x1="13.27" y1="10.34" x2="12.46" y2="18.39" fill="none" stroke="#000" stroke-linecap="round" stroke-miterlimit="10" stroke-width="1"/>
</svg>