<?xml version="1.0" encoding="UTF-8"?>
<svg id="Ebene_1" data-name="Ebene 1" xmlns="http://www.w3.org/2000/svg" viewBox="0 0 18 18">
  <path id="Icon_ionic-ios-arrow-dropleft-circle" data-name="Icon ionic-ios-arrow-dropleft-circle" d="m0,9c0,4.97,4.03,9,9,9s9-4.03,9-9S13.97,0,9,0,0,4.03,0,9Zm12.51-1.88c.33-.32.85-.32,1.18,0,.16.16.24.37.24.59,0,.22-.09.44-.25.59l-4.08,4.07c-.33.3-.84.29-1.15-.03l-4.14-4.13c-.33-.33-.33-.86,0-1.18.33-.33.86-.33,1.18,0h0l3.5,2.56,3.51-2.48Z" fill="#000" stroke-width="0"/>
</svg>