<?xml version="1.0" encoding="UTF-8"?><svg id="Ebene_1" xmlns="http://www.w3.org/2000/svg" viewBox="0 0 45.68 24"><path id="Polygon_26" d="m44.09,9.35c1.46.78,2.01,2.6,1.24,4.06-.28.53-.71.96-1.24,1.24l-16.87,9c-1.46.78-3.28.23-4.06-1.23-.23-.43-.35-.92-.35-1.41V3C22.8,1.34,24.14,0,25.8,0c.49,0,.98.12,1.41.35l16.88,9Z" stroke-width="0"/><path id="Polygon_27" d="m21.29,9.35c1.46.78,2.01,2.6,1.24,4.06-.28.53-.71.96-1.24,1.24L4.41,23.65c-1.46.78-3.28.23-4.06-1.23C.12,21.98,0,21.49,0,21V3C0,1.34,1.34,0,3,0c.49,0,.98.12,1.41.35l16.88,9Z" stroke-width="0"/></svg>