<?xml version="1.0" encoding="UTF-8"?>
<svg id="Ebene_1" data-name="Ebene 1" xmlns="http://www.w3.org/2000/svg" viewBox="0 0 23 23">
  <rect width="7" height="7" rx="2" ry="2" fill="none" stroke-width="0"/>
  <rect x="1" y="1" width="5" height="5" rx="1" ry="1" fill="none" stroke="#000" stroke-width="1.5"/>
  <rect y="8" width="7" height="7" rx="2" ry="2" fill="none" stroke-width="0"/>
  <rect x="1" y="9" width="5" height="5" rx="1" ry="1" fill="none" stroke="#000" stroke-width="1.5"/>
  <rect y="16" width="7" height="7" rx="2" ry="2" fill="none" stroke-width="0"/>
  <rect x="1" y="17" width="5" height="5" rx="1" ry="1" fill="none" stroke="#000" stroke-width="1.5"/>
  <rect x="8" width="7" height="7" rx="2" ry="2" fill="none" stroke-width="0"/>
  <rect x="9" y="1" width="5" height="5" rx="1" ry="1" fill="none" stroke="#000" stroke-width="1.5"/>
  <rect x="16" width="7" height="7" rx="2" ry="2" fill="none" stroke-width="0"/>
  <rect x="17" y="1" width="5" height="5" rx="1" ry="1" fill="none" stroke="#000" stroke-width="1.5"/>
  <rect x="16" y="8" width="7" height="7" rx="2" ry="2" fill="none" stroke-width="0"/>
  <rect x="17" y="9" width="5" height="5" rx="1" ry="1" fill="none" stroke="#000" stroke-width="1.5"/>
  <rect x="8" y="8" width="7" height="7" rx="2" ry="2" fill="none" stroke-width="0"/>
  <rect x="9" y="9" width="5" height="5" rx="1" ry="1" fill="none" stroke="#000" stroke-width="1.5"/>
  <rect x="8" y="16" width="7" height="7" rx="2" ry="2" fill="none" stroke-width="0"/>
  <rect x="9" y="17" width="5" height="5" rx="1" ry="1" fill="none" stroke="#000" stroke-width="1.5"/>
  <rect x="16" y="16" width="7" height="7" rx="2" ry="2" fill="none" stroke-width="0"/>
  <rect x="17" y="17" width="5" height="5" rx="1" ry="1" fill="none" stroke="#000" stroke-width="1.5"/>
</svg>