<?xml version="1.0" encoding="UTF-8"?>
<svg id="Ebene_1" data-name="Ebene 1" xmlns="http://www.w3.org/2000/svg" viewBox="0 0 29.8 13.35">
  <path d="m29.3,8.05c0,1.38-.56,2.65-1.48,3.55-.6.58-1.34,1.02-2.17,1.25l-6.33-4.67v-.12c0-.85.21-1.64.56-2.33-1.57-.53-3.25-.81-4.99-.81-1.75,0-3.42.28-4.99.81.35.67.56,1.43.58,2.22l-6.88,4.73c-.62-.26-1.18-.63-1.64-1.09-.9-.9-1.46-2.15-1.46-3.53,0-.69.14-1.34.39-1.94,1.22-1.18,2.59-2.19,4.09-3.03h.02C7.93,1.43,11.29.5,14.89.5s6.97.93,9.88,2.58c1.52.85,2.93,1.89,4.16,3.09.23.58.37,1.22.37,1.89Z" fill="#000" stroke="#000" stroke-linecap="round" stroke-linejoin="round"/>
</svg>