<?xml version="1.0" encoding="UTF-8"?>
<svg id="Ebene_1" data-name="Ebene 1" xmlns="http://www.w3.org/2000/svg" viewBox="0 0 39.43 23.28">
  <g>
    <path d="m19.72,22.28c-1.12,0-10.9-.24-17.25-8.49,1.69-2.1,7.62-8.51,17.25-8.51,1.12,0,10.9.24,17.25,8.49-1.69,2.1-7.62,8.51-17.25,8.51Z" fill="#fff"/>
    <path d="m19.72,6.28c1.04,0,9.9.22,15.96,7.48-2.1,2.41-7.55,7.52-15.96,7.52-1.04,0-9.9-.22-15.96-7.48,2.1-2.41,7.55-7.52,15.96-7.52m0-2C8.26,4.28,1.83,12.93,1.22,13.78c6.67,9.31,17.45,9.5,18.5,9.5,11.46,0,17.89-8.65,18.5-9.5C31.54,4.47,20.77,4.28,19.72,4.28h0Z" fill="#010101"/>
  </g>
  <g>
    <path d="m19.72,22.28c-4.69,0-8.5-3.81-8.5-8.5s3.81-8.5,8.5-8.5,8.5,3.81,8.5,8.5-3.81,8.5-8.5,8.5Z" fill="#fff"/>
    <path d="m19.72,6.28c4.14,0,7.5,3.36,7.5,7.5s-3.36,7.5-7.5,7.5-7.5-3.36-7.5-7.5,3.36-7.5,7.5-7.5m0-2c-5.25,0-9.5,4.25-9.5,9.5s4.25,9.5,9.5,9.5,9.5-4.25,9.5-9.5-4.25-9.5-9.5-9.5h0Z" fill="#010101"/>
  </g>
  <g>
    <path d="m19.72,17.78c-2.21,0-4-1.79-4-4s1.79-4,4-4,4,1.79,4,4-1.79,4-4,4Z" fill="#010101"/>
    <path d="m19.72,10.28c1.93,0,3.5,1.57,3.5,3.5s-1.57,3.5-3.5,3.5-3.5-1.57-3.5-3.5,1.57-3.5,3.5-3.5m0-1c-2.49,0-4.5,2.01-4.5,4.5s2.01,4.5,4.5,4.5,4.5-2.01,4.5-4.5-2.01-4.5-4.5-4.5h0Z" fill="#010101"/>
  </g>
  <circle cx="17.72" cy="11.78" r="2.5" fill="#fff"/>
  <line x1="19.52" y1="5" x2="19.52" y2="1" fill="none" stroke="#010101" stroke-linecap="round" stroke-miterlimit="10" stroke-width="2"/>
  <line x1="35.61" y1="11.41" x2="38.43" y2="8.59" fill="none" stroke="#010101" stroke-linecap="round" stroke-miterlimit="10" stroke-width="2"/>
  <line x1="3.83" y1="11.35" x2="1" y2="8.52" fill="none" stroke="#010101" stroke-linecap="round" stroke-miterlimit="10" stroke-width="2"/>
  <line x1="10.1" y1="6.97" x2="8.53" y2="3.13" fill="none" stroke="#010101" stroke-linecap="round" stroke-miterlimit="10" stroke-width="2"/>
  <line x1="28.63" y1="6.85" x2="30.2" y2="3.02" fill="none" stroke="#010101" stroke-linecap="round" stroke-miterlimit="10" stroke-width="2"/>
</svg>