<?xml version="1.0" encoding="utf-8"?>
<!-- Generator: Adobe Illustrator 27.1.1, SVG Export Plug-In . SVG Version: 6.00 Build 0)  -->
<svg version="1.1" id="Ebene_1" xmlns="http://www.w3.org/2000/svg" xmlns:xlink="http://www.w3.org/1999/xlink" x="0px" y="0px"
	 viewBox="0 0 36 34.5" style="enable-background:new 0 0 36 34.5;" xml:space="preserve">
<style type="text/css">
	.st0{fill:#21242C;}
</style>
<path class="st0" d="M18,4.6l3.1,6.3c0.7,1.4,2,2.4,3.5,2.6l6.9,1l-5,4.9c-1.1,1.1-1.6,2.6-1.4,4.2l1.2,6.9l-6.2-3.2
	c-0.7-0.4-1.4-0.5-2.2-0.5s-1.5,0.2-2.2,0.5l-6.2,3.2l1.2-6.9c0.3-1.5-0.2-3.1-1.4-4.2l-5-4.9l6.9-1c1.5-0.2,2.9-1.2,3.5-2.6L18,4.6
	 M18,0c-0.6,0-1.2,0.3-1.5,0.9l-4.2,8.6c-0.2,0.5-0.7,0.9-1.3,0.9l-9.5,1.4c-1.4,0.2-2,1.9-0.9,2.9l6.9,6.7c0.4,0.4,0.6,1,0.5,1.5
	l-1.6,9.5c-0.2,1.1,0.7,2,1.7,2c0.3,0,0.5-0.1,0.8-0.2l8.5-4.5c0.2-0.1,0.5-0.2,0.8-0.2s0.5,0.1,0.8,0.2l8.5,4.5
	c0.3,0.1,0.5,0.2,0.8,0.2c1,0,1.9-0.9,1.7-2L28.1,23c-0.1-0.5,0.1-1.1,0.5-1.5l6.9-6.7c1-1,0.5-2.7-0.9-2.9l-9.5-1.4
	c-0.5-0.1-1-0.4-1.3-0.9l-4.2-8.6C19.2,0.3,18.6,0,18,0L18,0L18,0z"/>
</svg>
