<?xml version="1.0" encoding="UTF-8"?>
<svg id="Ebene_1" data-name="Ebene 1" xmlns="http://www.w3.org/2000/svg" viewBox="0 0 36.05 34.46">
  <path d="m18.03,3.06l3.72,7.53c.58,1.18,1.71,2,3.01,2.19l8.31,1.21-6.01,5.86c-.94.92-1.37,2.24-1.15,3.54l1.42,8.27-7.43-3.91c-.57-.3-1.22-.46-1.86-.46s-1.29.16-1.86.46l-7.43,3.91,1.42-8.27c.22-1.3-.21-2.62-1.15-3.54l-6.01-5.86,8.31-1.21c1.3-.19,2.43-1.01,3.01-2.19l3.72-7.53m0-3.06c-.61,0-1.21.32-1.52.95l-4.25,8.62c-.25.5-.73.85-1.28.93l-9.51,1.38c-1.39.2-1.95,1.92-.94,2.9l6.88,6.71c.4.39.58.95.49,1.5l-1.63,9.47c-.19,1.1.68,1.99,1.67,1.99.26,0,.53-.06.79-.2l8.51-4.47c.25-.13.52-.2.79-.2s.54.07.79.2l8.51,4.47c.26.14.53.2.79.2.99,0,1.86-.89,1.67-1.99l-1.63-9.47c-.09-.55.09-1.11.49-1.5l6.88-6.71c1.01-.98.45-2.7-.94-2.9l-9.51-1.38c-.55-.08-1.03-.43-1.28-.93L19.55.95c-.31-.63-.92-.95-1.52-.95h0Z" fill="#010101"/>
</svg>